<svg width="360" height="384" viewBox="0 0 360 384" fill="none" xmlns="http://www.w3.org/2000/svg">
<path d="M80 320L120 360H40C17.9086 360 1.61086e-07 342.091 0 320V40C0 17.9086 17.9086 1.61065e-07 40 0H320C342.091 0 360 17.9086 360 40V320C360 342.091 342.091 360 320 360L280 320V30H80V320Z" fill="black"/>
<path d="M104 320.009L149 360L188 360L149.119 326.197C144.539 322.216 138.631 320.009 132.555 320.009L104 320.009Z" fill="black"/>
<circle cx="147" cy="67" r="25" fill="black"/>
<path d="M285.283 236C291.637 236 297.346 239.887 299.673 245.8L307.001 264H215.742C208.178 264 201.797 258.367 200.858 250.861L199 236L194.699 198.52L142.156 301.716C139.605 306.726 134.466 309.889 128.844 309.909L104 310L165.852 184.846L140.001 120H200.501L224.001 176L227.501 236H285.283Z" fill="black"/>
<path d="M130.922 115.296C135.784 102.477 148.067 94 161.777 94H221.392C237.857 94 251.586 106.596 253 123V123H128L130.922 115.296Z" fill="black"/>
<path d="M80 142H135V145C135 157.703 124.703 168 112 168H80V142Z" fill="black"/>
<path d="M249.906 112L265.697 140.487C269.307 147.001 266.954 155.207 260.441 158.818V158.818C253.9 162.444 245.657 160.053 242.071 153.49L223.5 119.5L249.906 112Z" fill="black"/>
<path d="M105 145L136.423 105.987L158.87 124.822L129.619 159.682L105 145Z" fill="black"/>
<path d="M158.775 323.146C160.213 324.344 162.025 325 163.896 325H259.5C260.881 325 262 323.881 262 322.5V322.5C262 321.119 260.881 320 259.5 320H155L158.775 323.146Z" fill="black"/>
<path d="M199.775 358.146C201.213 359.344 203.025 360 204.896 360H284.5C285.881 360 287 358.881 287 357.5V357.5C287 356.119 285.881 355 284.5 355H196L199.775 358.146Z" fill="black"/>
<path d="M179.903 341.253C181.258 342.382 182.966 343 184.729 343H210.5C211.881 343 213 341.881 213 340.5V340.5C213 339.119 211.881 338 210.5 338H176L179.903 341.253Z" fill="black"/>
</svg>
